<svg width="26" height="18" viewBox="0 0 26 18" fill="none" xmlns="http://www.w3.org/2000/svg">
<g clip-path="url(#clip0)">
<path d="M0.671387 15.2871L2.21755 7.03324V4.21169C2.21738 3.77619 2.30277 3.34493 2.46883 2.94259C2.63489 2.54024 2.87836 2.1747 3.18532 1.86688C3.49227 1.55906 3.85669 1.315 4.25773 1.14865C4.65876 0.982311 5.08854 0.896953 5.52247 0.897463H17.0001C17.4339 0.897293 17.8635 0.982893 18.2643 1.14937C18.6651 1.31585 19.0293 1.55995 19.3361 1.86772C19.6429 2.17549 19.8862 2.54091 20.0523 2.94309C20.2183 3.34527 20.3038 3.77635 20.3038 4.21169V8.31858C20.3043 8.75431 20.2192 9.18586 20.0534 9.58857C19.8876 9.99127 19.6444 10.3572 19.3375 10.6655C19.0307 10.9738 18.6664 11.2184 18.2653 11.3852C17.8642 11.5521 17.4343 11.638 17.0001 11.638H5.52247C5.3367 11.637 5.15135 11.6201 4.96843 11.5875L0.671387 15.2871Z" fill="#232343"/>
<path d="M24.8482 18.0001L23.3021 9.74754V6.92599C23.3022 6.49044 23.2168 6.05912 23.0508 5.6567C22.8848 5.25428 22.6413 4.88866 22.3344 4.58073C22.0274 4.27281 21.663 4.02862 21.262 3.86214C20.8609 3.69565 20.4311 3.61013 19.9971 3.61047H8.51946C7.64328 3.61047 6.80299 3.95979 6.18344 4.58157C5.56389 5.20335 5.21583 6.04666 5.21583 6.92599V11.0329C5.21498 11.4688 5.29981 11.9005 5.46547 12.3035C5.63113 12.7064 5.87436 13.0726 6.18123 13.381C6.48811 13.6895 6.85259 13.9342 7.25382 14.1011C7.65505 14.2679 8.08514 14.3537 8.51946 14.3536H19.9971C20.1833 14.3525 20.3691 14.3357 20.5525 14.3031L24.8482 18.0001Z" fill="#FFC700"/>
<path d="M10.1582 10.4016C10.7936 10.4016 11.3088 9.88465 11.3088 9.2469C11.3088 8.60916 10.7936 8.09216 10.1582 8.09216C9.52271 8.09216 9.00757 8.60916 9.00757 9.2469C9.00757 9.88465 9.52271 10.4016 10.1582 10.4016Z" fill="#232343"/>
<path d="M14.0122 10.4016C14.6476 10.4016 15.1628 9.88465 15.1628 9.2469C15.1628 8.60916 14.6476 8.09216 14.0122 8.09216C13.3767 8.09216 12.8616 8.60916 12.8616 9.2469C12.8616 9.88465 13.3767 10.4016 14.0122 10.4016Z" fill="#232343"/>
<path d="M17.8659 10.4016C18.5014 10.4016 19.0165 9.88465 19.0165 9.2469C19.0165 8.60916 18.5014 8.09216 17.8659 8.09216C17.2305 8.09216 16.7153 8.60916 16.7153 9.2469C16.7153 9.88465 17.2305 10.4016 17.8659 10.4016Z" fill="#232343"/>
</g>
<defs>
<clipPath id="clip0">
<rect width="26" height="18" fill="white"/>
</clipPath>
</defs>
</svg>
