<svg width="25" height="16" viewBox="0 0 25 16" fill="none" xmlns="http://www.w3.org/2000/svg">
<path d="M18.7883 0.11499H7.17009C3.86276 0.11499 1.18164 2.8898 1.18164 6.31269V9.77936C1.18164 13.2023 3.86276 15.9771 7.17009 15.9771H18.7883C22.0956 15.9771 24.7767 13.2023 24.7767 9.77936V6.31269C24.7767 2.8898 22.0956 0.11499 18.7883 0.11499Z" fill="#232343"/>
<path d="M8.55762 6.10117V9.99082C8.55745 10.2798 8.62431 10.5647 8.75258 10.8214C8.88085 11.0781 9.06679 11.2992 9.29477 11.4661C9.52275 11.633 9.78611 11.7409 10.0627 11.7806C10.3393 11.8203 10.6211 11.7907 10.8844 11.6943L16.2386 9.74944C17.7935 9.18393 17.7935 6.90806 16.2386 6.34255L10.8844 4.39772C10.6211 4.30132 10.3393 4.27173 10.0627 4.31143C9.78611 4.35113 9.52275 4.45897 9.29477 4.62588C9.06679 4.79278 8.88085 5.01389 8.75258 5.2706C8.62431 5.52732 8.55745 5.81216 8.55762 6.10117Z" fill="#FFC700"/>
</svg>
